<mxfile host="drawio.corp.amazon.com" modified="2024-09-18T18:59:09.645Z" agent="Mozilla/5.0 (Macintosh; Intel Mac OS X 10.15; rv:129.0) Gecko/20100101 Firefox/129.0" etag="slfErKxzpDIXh_eI-kht" version="21.7.4" type="device">
  <diagram name="Page-1" id="unf6PMDQ1pScApVGasnu">
    <mxGraphModel dx="1434" dy="798" grid="1" gridSize="10" guides="1" tooltips="1" connect="1" arrows="1" fold="1" page="1" pageScale="1" pageWidth="850" pageHeight="1100" math="0" shadow="0">
      <root>
        <mxCell id="0" />
        <mxCell id="1" parent="0" />
        <mxCell id="hlBUqEzRkhaGk_-afDWF-1" value="AWS Cloud" style="sketch=0;outlineConnect=0;gradientColor=none;html=1;whiteSpace=wrap;fontSize=12;fontStyle=0;shape=mxgraph.aws4.group;grIcon=mxgraph.aws4.group_aws_cloud;strokeColor=#AAB7B8;fillColor=none;verticalAlign=top;align=left;spacingLeft=30;fontColor=#AAB7B8;dashed=0;" vertex="1" parent="1">
          <mxGeometry x="40" y="40" width="760" height="520" as="geometry" />
        </mxCell>
        <mxCell id="hlBUqEzRkhaGk_-afDWF-3" value="Region" style="points=[[0,0],[0.25,0],[0.5,0],[0.75,0],[1,0],[1,0.25],[1,0.5],[1,0.75],[1,1],[0.75,1],[0.5,1],[0.25,1],[0,1],[0,0.75],[0,0.5],[0,0.25]];outlineConnect=0;gradientColor=none;html=1;whiteSpace=wrap;fontSize=12;fontStyle=0;container=1;pointerEvents=0;collapsible=0;recursiveResize=0;shape=mxgraph.aws4.group;grIcon=mxgraph.aws4.group_region;strokeColor=#147EBA;fillColor=none;verticalAlign=top;align=left;spacingLeft=30;fontColor=#147EBA;dashed=1;" vertex="1" parent="1">
          <mxGeometry x="70" y="70" width="700" height="460" as="geometry" />
        </mxCell>
        <mxCell id="hlBUqEzRkhaGk_-afDWF-17" style="edgeStyle=orthogonalEdgeStyle;rounded=0;orthogonalLoop=1;jettySize=auto;html=1;entryX=0;entryY=0.5;entryDx=0;entryDy=0;entryPerimeter=0;exitX=0.5;exitY=0;exitDx=0;exitDy=0;exitPerimeter=0;" edge="1" parent="hlBUqEzRkhaGk_-afDWF-3" source="hlBUqEzRkhaGk_-afDWF-4" target="hlBUqEzRkhaGk_-afDWF-5">
          <mxGeometry relative="1" as="geometry" />
        </mxCell>
        <mxCell id="hlBUqEzRkhaGk_-afDWF-18" value="Hot Data Query" style="edgeLabel;html=1;align=center;verticalAlign=middle;resizable=0;points=[];" vertex="1" connectable="0" parent="hlBUqEzRkhaGk_-afDWF-17">
          <mxGeometry x="0.186" relative="1" as="geometry">
            <mxPoint x="10" y="-9" as="offset" />
          </mxGeometry>
        </mxCell>
        <mxCell id="hlBUqEzRkhaGk_-afDWF-4" value="AWS AppSync" style="sketch=0;points=[[0,0,0],[0.25,0,0],[0.5,0,0],[0.75,0,0],[1,0,0],[0,1,0],[0.25,1,0],[0.5,1,0],[0.75,1,0],[1,1,0],[0,0.25,0],[0,0.5,0],[0,0.75,0],[1,0.25,0],[1,0.5,0],[1,0.75,0]];outlineConnect=0;fontColor=#232F3E;fillColor=#E7157B;strokeColor=#ffffff;dashed=0;verticalLabelPosition=bottom;verticalAlign=top;align=center;html=1;fontSize=12;fontStyle=0;aspect=fixed;shape=mxgraph.aws4.resourceIcon;resIcon=mxgraph.aws4.appsync;" vertex="1" parent="hlBUqEzRkhaGk_-afDWF-3">
          <mxGeometry x="90" y="130" width="78" height="78" as="geometry" />
        </mxCell>
        <mxCell id="hlBUqEzRkhaGk_-afDWF-21" style="edgeStyle=orthogonalEdgeStyle;rounded=0;orthogonalLoop=1;jettySize=auto;html=1;entryX=0;entryY=0.5;entryDx=0;entryDy=0;entryPerimeter=0;" edge="1" parent="hlBUqEzRkhaGk_-afDWF-3" source="hlBUqEzRkhaGk_-afDWF-5" target="hlBUqEzRkhaGk_-afDWF-7">
          <mxGeometry relative="1" as="geometry" />
        </mxCell>
        <mxCell id="hlBUqEzRkhaGk_-afDWF-5" value="AWS Lambda&lt;br&gt;Hot Data Resolver" style="sketch=0;points=[[0,0,0],[0.25,0,0],[0.5,0,0],[0.75,0,0],[1,0,0],[0,1,0],[0.25,1,0],[0.5,1,0],[0.75,1,0],[1,1,0],[0,0.25,0],[0,0.5,0],[0,0.75,0],[1,0.25,0],[1,0.5,0],[1,0.75,0]];outlineConnect=0;fontColor=#232F3E;fillColor=#ED7100;strokeColor=#ffffff;dashed=0;verticalLabelPosition=bottom;verticalAlign=top;align=center;html=1;fontSize=12;fontStyle=0;aspect=fixed;shape=mxgraph.aws4.resourceIcon;resIcon=mxgraph.aws4.lambda;" vertex="1" parent="hlBUqEzRkhaGk_-afDWF-3">
          <mxGeometry x="240" y="30" width="78" height="78" as="geometry" />
        </mxCell>
        <mxCell id="hlBUqEzRkhaGk_-afDWF-7" value="Amazon DynamoDB&lt;br&gt;Hot Data" style="sketch=0;points=[[0,0,0],[0.25,0,0],[0.5,0,0],[0.75,0,0],[1,0,0],[0,1,0],[0.25,1,0],[0.5,1,0],[0.75,1,0],[1,1,0],[0,0.25,0],[0,0.5,0],[0,0.75,0],[1,0.25,0],[1,0.5,0],[1,0.75,0]];outlineConnect=0;fontColor=#232F3E;fillColor=#C925D1;strokeColor=#ffffff;dashed=0;verticalLabelPosition=bottom;verticalAlign=top;align=center;html=1;fontSize=12;fontStyle=0;aspect=fixed;shape=mxgraph.aws4.resourceIcon;resIcon=mxgraph.aws4.dynamodb;" vertex="1" parent="hlBUqEzRkhaGk_-afDWF-3">
          <mxGeometry x="430" y="30" width="78" height="78" as="geometry" />
        </mxCell>
        <mxCell id="hlBUqEzRkhaGk_-afDWF-24" value="" style="edgeStyle=orthogonalEdgeStyle;rounded=0;orthogonalLoop=1;jettySize=auto;html=1;dashed=1;dashPattern=1 1;" edge="1" parent="hlBUqEzRkhaGk_-afDWF-3" source="hlBUqEzRkhaGk_-afDWF-8" target="hlBUqEzRkhaGk_-afDWF-9">
          <mxGeometry relative="1" as="geometry" />
        </mxCell>
        <mxCell id="hlBUqEzRkhaGk_-afDWF-26" style="edgeStyle=orthogonalEdgeStyle;rounded=0;orthogonalLoop=1;jettySize=auto;html=1;" edge="1" parent="hlBUqEzRkhaGk_-afDWF-3" source="hlBUqEzRkhaGk_-afDWF-8" target="hlBUqEzRkhaGk_-afDWF-10">
          <mxGeometry relative="1" as="geometry">
            <Array as="points">
              <mxPoint x="470" y="380" />
            </Array>
          </mxGeometry>
        </mxCell>
        <mxCell id="hlBUqEzRkhaGk_-afDWF-8" value="Amazon Athena" style="sketch=0;points=[[0,0,0],[0.25,0,0],[0.5,0,0],[0.75,0,0],[1,0,0],[0,1,0],[0.25,1,0],[0.5,1,0],[0.75,1,0],[1,1,0],[0,0.25,0],[0,0.5,0],[0,0.75,0],[1,0.25,0],[1,0.5,0],[1,0.75,0]];outlineConnect=0;fontColor=#232F3E;fillColor=#8C4FFF;strokeColor=#ffffff;dashed=0;verticalLabelPosition=bottom;verticalAlign=top;align=center;html=1;fontSize=12;fontStyle=0;aspect=fixed;shape=mxgraph.aws4.resourceIcon;resIcon=mxgraph.aws4.athena;" vertex="1" parent="hlBUqEzRkhaGk_-afDWF-3">
          <mxGeometry x="430" y="230" width="78" height="78" as="geometry" />
        </mxCell>
        <mxCell id="hlBUqEzRkhaGk_-afDWF-9" value="Amazon S3&lt;br&gt;Cold Data" style="sketch=0;points=[[0,0,0],[0.25,0,0],[0.5,0,0],[0.75,0,0],[1,0,0],[0,1,0],[0.25,1,0],[0.5,1,0],[0.75,1,0],[1,1,0],[0,0.25,0],[0,0.5,0],[0,0.75,0],[1,0.25,0],[1,0.5,0],[1,0.75,0]];outlineConnect=0;fontColor=#232F3E;fillColor=#7AA116;strokeColor=#ffffff;dashed=0;verticalLabelPosition=bottom;verticalAlign=top;align=center;html=1;fontSize=12;fontStyle=0;aspect=fixed;shape=mxgraph.aws4.resourceIcon;resIcon=mxgraph.aws4.s3;" vertex="1" parent="hlBUqEzRkhaGk_-afDWF-3">
          <mxGeometry x="580" y="230" width="78" height="78" as="geometry" />
        </mxCell>
        <mxCell id="hlBUqEzRkhaGk_-afDWF-27" style="edgeStyle=orthogonalEdgeStyle;rounded=0;orthogonalLoop=1;jettySize=auto;html=1;" edge="1" parent="hlBUqEzRkhaGk_-afDWF-3" source="hlBUqEzRkhaGk_-afDWF-10" target="hlBUqEzRkhaGk_-afDWF-9">
          <mxGeometry relative="1" as="geometry" />
        </mxCell>
        <mxCell id="hlBUqEzRkhaGk_-afDWF-10" value="AWS Glue&lt;br&gt;Data Catalog" style="sketch=0;outlineConnect=0;fontColor=#232F3E;gradientColor=none;fillColor=#8C4FFF;strokeColor=none;dashed=0;verticalLabelPosition=bottom;verticalAlign=top;align=center;html=1;fontSize=12;fontStyle=0;aspect=fixed;pointerEvents=1;shape=mxgraph.aws4.glue_data_catalog;" vertex="1" parent="hlBUqEzRkhaGk_-afDWF-3">
          <mxGeometry x="508" y="340" width="72" height="78" as="geometry" />
        </mxCell>
        <mxCell id="hlBUqEzRkhaGk_-afDWF-23" style="edgeStyle=orthogonalEdgeStyle;rounded=0;orthogonalLoop=1;jettySize=auto;html=1;entryX=0;entryY=0.5;entryDx=0;entryDy=0;entryPerimeter=0;" edge="1" parent="1" source="hlBUqEzRkhaGk_-afDWF-6" target="hlBUqEzRkhaGk_-afDWF-8">
          <mxGeometry relative="1" as="geometry" />
        </mxCell>
        <mxCell id="hlBUqEzRkhaGk_-afDWF-6" value="AWS Lambda&lt;br&gt;Cold Data Resolver" style="sketch=0;points=[[0,0,0],[0.25,0,0],[0.5,0,0],[0.75,0,0],[1,0,0],[0,1,0],[0.25,1,0],[0.5,1,0],[0.75,1,0],[1,1,0],[0,0.25,0],[0,0.5,0],[0,0.75,0],[1,0.25,0],[1,0.5,0],[1,0.75,0]];outlineConnect=0;fontColor=#232F3E;fillColor=#ED7100;strokeColor=#ffffff;dashed=0;verticalLabelPosition=bottom;verticalAlign=top;align=center;html=1;fontSize=12;fontStyle=0;aspect=fixed;shape=mxgraph.aws4.resourceIcon;resIcon=mxgraph.aws4.lambda;" vertex="1" parent="1">
          <mxGeometry x="310" y="300" width="78" height="78" as="geometry" />
        </mxCell>
        <mxCell id="hlBUqEzRkhaGk_-afDWF-13" value="" style="endArrow=classic;html=1;rounded=0;" edge="1" parent="1">
          <mxGeometry relative="1" as="geometry">
            <mxPoint x="80" y="240" as="sourcePoint" />
            <mxPoint x="160" y="240" as="targetPoint" />
          </mxGeometry>
        </mxCell>
        <mxCell id="hlBUqEzRkhaGk_-afDWF-16" value="Query" style="edgeLabel;html=1;align=center;verticalAlign=middle;resizable=0;points=[];" vertex="1" connectable="0" parent="hlBUqEzRkhaGk_-afDWF-13">
          <mxGeometry y="2" relative="1" as="geometry">
            <mxPoint y="12" as="offset" />
          </mxGeometry>
        </mxCell>
        <mxCell id="hlBUqEzRkhaGk_-afDWF-19" style="edgeStyle=orthogonalEdgeStyle;rounded=0;orthogonalLoop=1;jettySize=auto;html=1;entryX=0;entryY=0.5;entryDx=0;entryDy=0;entryPerimeter=0;exitX=0.5;exitY=1;exitDx=0;exitDy=0;exitPerimeter=0;" edge="1" parent="1" source="hlBUqEzRkhaGk_-afDWF-4" target="hlBUqEzRkhaGk_-afDWF-6">
          <mxGeometry relative="1" as="geometry" />
        </mxCell>
        <mxCell id="hlBUqEzRkhaGk_-afDWF-20" value="Cold Data Query" style="edgeLabel;html=1;align=center;verticalAlign=middle;resizable=0;points=[];" vertex="1" connectable="0" parent="hlBUqEzRkhaGk_-afDWF-19">
          <mxGeometry x="0.2558" y="-1" relative="1" as="geometry">
            <mxPoint y="10" as="offset" />
          </mxGeometry>
        </mxCell>
      </root>
    </mxGraphModel>
  </diagram>
</mxfile>
